<?xml version="1.0" encoding="UTF-8" standalone="no"?>
<!-- Created with Inkscape (http://www.inkscape.org/) -->

<svg
   width="297mm"
   height="210mm"
   viewBox="0 0 297 210"
   version="1.1"
   id="Liferay logo"
   xml:space="preserve"
   inkscape:version="1.3.2 (091e20e, 2023-11-25)"
   sodipodi:docname="docker_liferay.svg"
   xmlns:inkscape="http://www.inkscape.org/namespaces/inkscape"
   xmlns:sodipodi="http://sodipodi.sourceforge.net/DTD/sodipodi-0.dtd"
   xmlns="http://www.w3.org/2000/svg"
   xmlns:svg="http://www.w3.org/2000/svg"><sodipodi:namedview
     id="namedview1"
     pagecolor="#ffffff"
     bordercolor="#666666"
     borderopacity="1.0"
     inkscape:showpageshadow="2"
     inkscape:pageopacity="0.0"
     inkscape:pagecheckerboard="0"
     inkscape:deskcolor="#d1d1d1"
     inkscape:document-units="mm"
     inkscape:zoom="0.52449176"
     inkscape:cx="457.58583"
     inkscape:cy="536.71005"
     inkscape:window-width="2048"
     inkscape:window-height="1140"
     inkscape:window-x="1310"
     inkscape:window-y="156"
     inkscape:window-maximized="0"
     inkscape:current-layer="g3" /><defs
     id="defs1" /><g
     inkscape:label="Capa 1"
     inkscape:groupmode="layer"
     id="g3"><g
       id="LiferayLogo"
       transform="matrix(0.57142857,0,0,0.57142857,25.260951,41.193124)"><path
         id="path1"
         d="m 2,22 a 4,4 0 0 1 4,-4 h 46 a 4,4 0 0 1 4,4 v 46 a 4,4 0 0 1 -4,4 H 6 A 4,4 0 0 1 2,68 Z m 8,5 a 1,1 0 0 1 1,-1 h 6 a 1,1 0 0 1 1,1 v 6 a 1,1 0 0 1 -1,1 h -6 a 1,1 0 0 1 -1,-1 z m 11,-1 a 1,1 0 0 0 -1,1 v 6 a 1,1 0 0 0 1,1 h 6 a 1,1 0 0 0 1,-1 v -6 a 1,1 0 0 0 -1,-1 z m 9,1 a 1,1 0 0 1 1,-1 h 6 a 1,1 0 0 1 1,1 v 6 a 1,1 0 0 1 -1,1 h -6 a 1,1 0 0 1 -1,-1 z m -19,9 a 1,1 0 0 0 -1,1 v 6 a 1,1 0 0 0 1,1 h 6 a 1,1 0 0 0 1,-1 v -6 a 1,1 0 0 0 -1,-1 z m 9,1 a 1,1 0 0 1 1,-1 h 6 a 1,1 0 0 1 1,1 v 6 a 1,1 0 0 1 -1,1 h -6 a 1,1 0 0 1 -1,-1 z m 21,-1 a 1,1 0 0 0 -1,1 v 6 a 1,1 0 0 0 1,1 h 6 a 1,1 0 0 0 1,-1 V 37 A 1,1 0 0 0 47,36 Z M 10,47 a 1,1 0 0 1 1,-1 h 6 a 1,1 0 0 1 1,1 v 6 a 1,1 0 0 1 -1,1 h -6 a 1,1 0 0 1 -1,-1 z m 21,-1 a 1,1 0 0 0 -1,1 v 6 a 1,1 0 0 0 1,1 h 6 a 1,1 0 0 0 1,-1 v -6 a 1,1 0 0 0 -1,-1 z m 9,1 a 1,1 0 0 1 1,-1 h 6 a 1,1 0 0 1 1,1 v 6 a 1,1 0 0 1 -1,1 h -6 a 1,1 0 0 1 -1,-1 z m -19,9 a 1,1 0 0 0 -1,1 v 6 a 1,1 0 0 0 1,1 h 6 a 1,1 0 0 0 1,-1 v -6 a 1,1 0 0 0 -1,-1 z m 9,1 a 1,1 0 0 1 1,-1 h 6 a 1,1 0 0 1 1,1 v 6 a 1,1 0 0 1 -1,1 h -6 a 1,1 0 0 1 -1,-1 z m 11,-1 a 1,1 0 0 0 -1,1 v 6 a 1,1 0 0 0 1,1 h 6 a 1,1 0 0 0 1,-1 v -6 a 1,1 0 0 0 -1,-1"
         fill="#0b63ce"
         fill-rule="evenodd" /><path
         id="path2"
         d="M 100.4,67.7 H 76.7 v -49 c 0,-0.3 -0.2,-0.5 -0.5,-0.5 h -3.7 c -0.3,0 -0.5,0.2 -0.5,0.5 v 52.6 c 0,0.3 0.2,0.5 0.5,0.5 h 27.9 c 0.3,0 0.5,-0.2 0.5,-0.5 v -3.2 c 0,-0.2 -0.2,-0.4 -0.5,-0.4 z m 35.1,-35.2 h -8.4 v -7.8 c 0,-5.5 1.8,-8.2 5.5,-8.2 1.5,0 3,0.4 4.4,1 0.1,0.1 0.3,0.1 0.4,0 l 0.3,-0.3 1,-2.9 c 0.1,-0.2 0,-0.5 -0.3,-0.6 -1.9,-0.8 -4,-1.3 -5.8,-1.3 -6.4,0 -10,4.3 -10,12 v 8.1 l -4.8,0.3 c -0.3,0 -0.5,0.2 -0.5,0.5 V 36 c 0,0.3 0.2,0.5 0.5,0.5 h 4.8 v 34.8 c 0,0.3 0.2,0.5 0.5,0.5 h 3.5 c 0.3,0 0.5,-0.2 0.5,-0.5 V 36.5 h 8.4 c 0.3,0 0.5,-0.2 0.5,-0.5 v -3.1 c 0,-0.2 -0.2,-0.4 -0.5,-0.4 z m 18.2,-1 c -8.3,0 -17.2,7.3 -17.2,20.7 0,12.1 7.5,20.6 18.2,20.6 5.7,0 9.2,-1.9 12.4,-3.8 0.2,-0.1 0.3,-0.4 0.2,-0.7 l -1.5,-2.7 c -0.1,-0.1 -0.2,-0.2 -0.3,-0.2 -0.1,0 -0.3,0 -0.4,0.1 -3.2,2.3 -6.4,3.3 -10,3.3 -8.1,0 -13.6,-6.3 -13.9,-15.6 h 27.1 c 0.2,0 0.4,-0.2 0.5,-0.4 0.2,-1 0.2,-2.1 0.2,-3 -0.2,-11.5 -5.8,-18.3 -15.3,-18.3 z m -12.6,17.7 c 0.9,-8.1 6,-13.7 12.6,-13.7 6.9,0 10.7,4.9 10.8,13.7 z m 53.3,-16.8 c -1.2,-0.6 -2.4,-0.8 -4,-0.8 -4,0 -7.8,2.5 -10.7,7.2 L 179.4,33 c 0,-0.3 -0.2,-0.5 -0.5,-0.5 h -3 c -0.3,0 -0.5,0.2 -0.5,0.5 v 38.4 c 0,0.3 0.2,0.5 0.5,0.5 h 3.5 c 0.3,0 0.5,-0.2 0.5,-0.5 v -26 c 2.4,-6 6.1,-9.5 10,-9.5 1.4,0 2,0.2 3.3,0.6 h 0.4 c 0.1,-0.1 0.2,-0.2 0.2,-0.3 l 0.8,-3.2 c 0.1,-0.3 0,-0.5 -0.2,-0.6 z m 31.6,0.1 h -3.1 c -0.3,0 -0.5,0.2 -0.5,0.5 l -0.2,2.9 c -3.3,-2.6 -6.5,-4.3 -11.1,-4.3 -10.2,0 -17.5,8.7 -17.5,20.7 0,12.9 6.1,20.6 16.4,20.6 4.2,0 8.4,-1.9 12.3,-5.5 l 0.3,4.1 c 0,0.3 0.2,0.5 0.5,0.5 h 3 c 0.3,0 0.5,-0.2 0.5,-0.5 V 33 c -0.1,-0.3 -0.3,-0.5 -0.6,-0.5 z m -4,7.8 v 22.3 c -4.1,4.2 -7.7,6 -11.5,6 -7.6,0 -12.2,-6.2 -12.2,-16.5 0,-9.3 5.7,-16.6 13,-16.6 3.8,0.1 7,1.5 10.7,4.8 z m 42.2,-7.6 c -0.1,-0.1 -0.2,-0.2 -0.4,-0.2 h -3.6 c -0.2,0 -0.4,0.1 -0.5,0.3 l -8.2,24.1 c -0.4,1.3 -0.9,2.7 -1.3,4.1 -0.6,2 -1.3,4 -1.9,5.8 -0.8,-2 -1.6,-4.2 -2.4,-6.3 -0.5,-1.3 -1,-2.5 -1.4,-3.7 l -9.2,-24.1 c -0.1,-0.2 -0.3,-0.3 -0.5,-0.3 H 231 c -0.2,0 -0.3,0.1 -0.4,0.2 -0.1,0.1 -0.1,0.3 0,0.5 l 15.7,38.9 -1,3.2 c -1.5,4.5 -4.3,9.8 -9.4,9.8 -1,0 -2.2,-0.3 -3,-0.6 h -0.4 l -0.3,0.3 -0.8,3.1 c -0.1,0.2 0.1,0.5 0.3,0.6 1.1,0.5 2.7,0.8 4.1,0.8 5.9,0 10.5,-4.5 13.4,-13 L 264.3,33 c 0.1,0 0,-0.2 -0.1,-0.3 z M 110.4,23.8 c 0.6,0 1.1,-0.5 1.1,-1.1 v -3.6 c 0,-0.6 -0.5,-1.1 -1.1,-1.1 h -3.6 c -0.6,0 -1.1,0.5 -1.1,1.1 v 3.6 c 0,0.6 0.5,1.1 1.1,1.1 z m -3.6,8.7 h 3.5 c 0.3,0 0.5,0.2 0.5,0.5 v 38.4 c 0,0.3 -0.2,0.5 -0.5,0.5 h -3.5 c -0.3,0 -0.5,-0.2 -0.5,-0.5 V 33 c 0,-0.3 0.2,-0.5 0.5,-0.5 z"
         fill="currentColor" /></g><path
       d="m 150.76485,133.40882 c -1.23142,-0.82889 -4.4666,-1.18232 -6.81858,-0.54912 -0.12649,-2.34305 -1.33485,-4.31779 -3.54546,-6.03955 l -0.81772,-0.54912 -0.5454,0.82368 c -1.07145,1.62652 -1.5231,3.79472 -1.36387,5.76574 0.12649,1.2143 0.54838,2.57892 1.36387,3.56926 -3.06182,1.77608 -5.8833,1.3728 -18.38057,1.3728 h -19.29427 c -0.0566,2.82222 0.39732,8.25016 3.84903,12.66914 0.38096,0.48811 0.79912,0.96059 1.253,1.41521 2.8066,2.81032 7.04701,4.87137 13.38791,4.87658 9.67281,0.009 17.96092,-5.22033 23.00268,-17.86269 1.65926,0.0275 6.03807,0.29687 8.18096,-3.84383 0.0521,-0.0699 0.5454,-1.09824 0.5454,-1.09824 l -0.81698,-0.54911 z m -36.81024,-2.91226 h -5.4257 v 5.4257 h 5.4257 z m 7.00981,0 h -5.4257 v 5.4257 h 5.4257 z m 7.00981,0 h -5.4257 v 5.4257 h 5.4257 z m 7.00981,0 h -5.4257 v 5.4257 h 5.4257 z m -28.03775,0 h -5.42719 v 5.4257 h 5.4257 v -5.4257 z m 7.0098,-6.85356 h -5.4257 v 5.42571 h 5.4257 z m 7.00982,0 h -5.42571 v 5.42571 h 5.42571 z m 7.00981,0 h -5.4257 v 5.42571 h 5.4257 z m -0.002,-6.85281 h -5.42571 v 5.4257 h 5.42571 z m 146.746,31.60032 c 0,1.40925 -1.10642,2.51568 -2.54544,2.51568 -1.43901,0 -2.56106,-1.10643 -2.56106,-2.51568 0,-1.40925 1.13618,-2.48517 2.56106,-2.48517 1.42488,0 2.54544,1.10642 2.54544,2.48517 z m -4.47033,0 c 0,1.10643 0.81848,1.98516 1.93978,1.98516 1.12129,0 1.89438,-0.87873 1.89438,-1.96954 0,-1.09079 -0.80359,-2.00078 -1.90853,-2.00078 -1.10493,0 -1.92489,0.89436 -1.92489,1.98516 z m 1.53128,1.3036 h -0.5759 v -2.48517 c 0.22619,-0.0454 0.5454,-0.0759 0.95389,-0.0759 0.47024,0 0.68156,0.0759 0.86385,0.18229 0.13691,0.10566 0.24257,0.30283 0.24257,0.5454 0,0.27307 -0.21206,0.48513 -0.51415,0.5759 v 0.0305 c 0.24108,0.09 0.37798,0.27233 0.45388,0.60567 0.0752,0.37873 0.12054,0.53052 0.1823,0.6213 h -0.6213 c -0.0759,-0.0908 -0.12203,-0.31772 -0.19718,-0.60642 -0.0454,-0.27233 -0.19717,-0.3936 -0.51563,-0.3936 h -0.27233 v 1.00076 z m 0.0149,-1.40926 h 0.27232 c 0.31846,0 0.5759,-0.10565 0.5759,-0.3631 0,-0.22768 -0.16592,-0.38021 -0.53051,-0.38021 -0.15105,0 -0.25745,0.0156 -0.31771,0.032 z m -94.7176,-25.04513 c -0.35641,-0.34822 -0.78425,-0.52531 -1.2969,-0.52531 -0.51266,0 -0.95315,0.17709 -1.29616,0.52531 -0.34376,0.34822 -0.51191,0.79466 -0.51191,1.32666 v 8.88411 c -1.76343,-1.45762 -3.79844,-2.19276 -6.11322,-2.19276 -2.69053,0 -4.99117,0.97175 -6.89746,2.92194 -1.90628,1.94349 -2.85273,4.29473 -2.85273,7.05222 0,2.75749 0.95314,5.10204 2.85273,7.05222 1.90629,1.94349 4.20098,2.92193 6.89746,2.92193 2.69648,0 4.96587,-0.97174 6.89746,-2.92193 1.90628,-1.92415 2.85273,-4.27464 2.85273,-7.05222 v -16.66625 c 0,-0.532 -0.17485,-0.97844 -0.532,-1.32666 z m -3.5849,20.39549 v 0.0134 c -0.31771,0.75523 -0.75224,1.41819 -1.30285,1.98293 -0.55061,0.57144 -1.19943,1.01788 -1.93828,1.35271 -0.74555,0.33482 -1.53649,0.49927 -2.38547,0.49927 -0.84896,0 -1.65925,-0.16445 -2.4048,-0.49927 -0.74555,-0.33483 -1.38768,-0.78127 -1.93159,-1.34602 -0.54465,-0.56474 -0.97844,-1.22769 -1.29616,-1.98291 -0.31771,-0.76193 -0.47991,-1.56924 -0.47991,-2.42342 0,-0.85418 0.1622,-1.66149 0.47991,-2.42341 0.31772,-0.76191 0.75225,-1.41818 1.29616,-1.98292 0.54466,-0.56475 1.19274,-1.01118 1.93159,-1.34601 0.74555,-0.33483 1.54318,-0.49927 2.4048,-0.49927 0.86163,0 1.63992,0.16444 2.38547,0.49927 0.74555,0.33483 1.38767,0.78126 1.93828,1.35271 0.55061,0.57144 0.98514,1.23439 1.30285,1.98292 0.31772,0.75522 0.47993,1.55658 0.47993,2.41002 0,0.85344 -0.16221,1.66149 -0.47993,2.41002 z m 84.13781,-6.23152 c -0.47322,-1.18231 -1.19422,-2.25228 -2.13992,-3.21137 l -0.0127,-0.007 c -1.92563,-1.94349 -4.22776,-2.92193 -6.89746,-2.92193 -2.66969,0 -4.99191,0.97174 -6.8982,2.92193 -1.90628,1.94349 -2.85198,4.29472 -2.85198,7.05222 0,2.75749 0.95314,5.10203 2.85198,7.05222 1.90629,1.94349 4.20173,2.92193 6.8982,2.92193 2.44946,0 4.56929,-0.80731 6.37215,-2.42266 0.34897,-0.36757 0.52531,-0.81401 0.52531,-1.33336 0,-0.51936 -0.16816,-0.97845 -0.51265,-1.32667 -0.34302,-0.34822 -0.77755,-0.5253 -1.29617,-0.5253 -0.45313,0.0134 -0.85566,0.16443 -1.19868,0.46653 -0.54465,0.47247 -1.13469,0.83409 -1.77608,1.0707 -0.64212,0.23661 -1.34229,0.35492 -2.10643,0.35492 -0.67487,0 -1.32295,-0.10492 -1.93829,-0.32144 -0.61682,-0.21652 -1.19273,-0.51266 -1.70539,-0.89957 -0.51935,-0.38765 -0.96579,-0.84674 -1.34824,-1.39214 -0.38245,-0.5387 -0.67412,-1.13618 -0.86832,-1.79244 h 13.78896 c 0.51117,0 0.93901,-0.17709 1.29616,-0.52531 0.35715,-0.34822 0.532,-0.79466 0.532,-1.32666 0,-1.37875 -0.24108,-2.65928 -0.71281,-3.8349 z m -14.91696,1.98293 c 0.18825,-0.65031 0.47323,-1.2478 0.85567,-1.79245 0.3832,-0.5387 0.83633,-1.00448 1.35494,-1.39214 0.52531,-0.38766 1.09526,-0.68305 1.72399,-0.89957 0.62799,-0.21652 1.26938,-0.32143 1.93233,-0.32143 0.66296,0 1.30286,0.10491 1.92415,0.32143 0.62278,0.21652 1.19422,0.51191 1.70539,0.89957 0.51936,0.38766 0.97249,0.84674 1.35494,1.39214 0.3884,0.5387 0.68156,1.13618 0.88245,1.79245 h -11.7346 z m 31.86149,-6.87514 c -0.32441,-0.32143 -0.7329,-0.57144 -1.22547,-0.75522 -0.49257,-0.18379 -1.03053,-0.30879 -1.62057,-0.38096 -0.58334,-0.0722 -1.13469,-0.10491 -1.64586,-0.10491 -1.16149,0 -2.25005,0.19048 -3.27388,0.57144 -1.02457,0.38095 -1.97102,0.92561 -2.84008,1.6347 v -0.35417 c 0,-0.51192 -0.17486,-0.94571 -0.53201,-1.30658 -0.35566,-0.36087 -0.77754,-0.54465 -1.27606,-0.54465 -0.49852,0 -0.9405,0.18378 -1.29616,0.54465 -0.35715,0.36087 -0.532,0.80136 -0.532,1.30658 v 16.23915 c 0,0.51192 0.17485,0.9457 0.532,1.30658 0.35566,0.36087 0.7835,0.54465 1.29616,0.54465 0.51266,0 0.92635,-0.18378 1.27606,-0.54465 0.35715,-0.36088 0.53201,-0.80136 0.53201,-1.30658 v -8.12292 c 0,-0.86684 0.16221,-1.68084 0.47992,-2.44276 0.31771,-0.76192 0.75225,-1.41818 1.30285,-1.98292 0.5521,-0.56475 1.20018,-1.01119 1.93828,-1.33336 0.74555,-0.32814 1.53723,-0.49257 2.38696,-0.49257 0.84972,0 1.65181,0.15104 2.38546,0.44643 0.29093,0.1317 0.54465,0.19718 0.7649,0.19718 0.25298,0 0.49256,-0.0461 0.71281,-0.14435 0.22024,-0.0982 0.41518,-0.22991 0.57739,-0.4003 0.1622,-0.17039 0.29093,-0.36757 0.3884,-0.59748 0.0975,-0.22322 0.14955,-0.46653 0.14955,-0.72919 0,-0.51191 -0.1622,-0.92561 -0.48587,-1.24779 h 0.006 z m -76.1183,4.89816 c -0.47323,-1.17561 -1.18009,-2.25227 -2.13249,-3.22402 -1.92489,-1.94349 -4.22627,-2.92194 -6.89745,-2.92194 -2.67119,0 -4.99117,0.97175 -6.89746,2.92194 -1.90629,1.94349 -2.85199,4.29473 -2.85199,7.05222 0,2.7575 0.95314,5.10204 2.85199,7.05222 1.90629,1.9435 4.20097,2.92193 6.89746,2.92193 2.69648,0 4.96587,-0.97174 6.89745,-2.92193 1.90629,-1.92414 2.85274,-4.27463 2.85274,-7.05222 -0.0134,-1.37874 -0.25299,-2.65258 -0.71951,-3.8282 z m -3.39665,6.22483 v 0.0134 c -0.31771,0.75523 -0.75224,1.41818 -1.30285,1.98293 -0.55061,0.57144 -1.19943,1.01788 -1.93828,1.3527 -0.73886,0.33483 -1.53649,0.49927 -2.38547,0.49927 -0.84897,0 -1.65926,-0.16444 -2.4048,-0.49927 -0.74555,-0.33482 -1.38768,-0.78126 -1.93159,-1.346 -0.54465,-0.56475 -0.97844,-1.2277 -1.29616,-1.98293 -0.31771,-0.76192 -0.47991,-1.56923 -0.47991,-2.42341 0,-0.85418 0.1622,-1.66149 0.47991,-2.42341 0.31772,-0.76192 0.75225,-1.41818 1.29616,-1.98293 0.54465,-0.56474 1.19273,-1.01118 1.93159,-1.346 0.74554,-0.33483 1.54318,-0.49927 2.4048,-0.49927 0.86163,0 1.63991,0.16444 2.38547,0.49927 0.74555,0.33482 1.38767,0.78126 1.93828,1.3527 0.55061,0.57144 0.98514,1.2344 1.30285,1.98292 0.31772,0.75523 0.47992,1.55658 0.47992,2.41002 0,0.85345 -0.1622,1.6615 -0.47992,2.41002 z m 42.39518,-10.51881 c 0,-0.24926 -0.0521,-0.48587 -0.14882,-0.70909 -0.0975,-0.22323 -0.22694,-0.42635 -0.38914,-0.59748 -0.16221,-0.1704 -0.35641,-0.30879 -0.57665,-0.40031 -0.22024,-0.0915 -0.45983,-0.14435 -0.71281,-0.14435 -0.3631,0 -0.68751,0.0923 -0.97249,0.28275 l -10.41091,6.92796 v -13.89611 c 0,-0.52531 -0.17486,-0.96504 -0.53127,-1.32666 -0.35641,-0.36087 -0.77754,-0.54466 -1.27681,-0.54466 -0.49926,0 -0.93975,0.18379 -1.2969,0.54466 -0.35641,0.36087 -0.53126,0.80135 -0.53126,1.32666 v 24.7557 c 0,0.51191 0.17485,0.9524 0.53126,1.31996 0.35641,0.36757 0.78424,0.55135 1.2969,0.55135 0.51266,0 0.9271,-0.18378 1.27681,-0.55135 0.35641,-0.36756 0.53127,-0.80805 0.53127,-1.31996 v -6.4287 l 2.12652,-1.42488 8.0448,9.23902 c 0.32441,0.32144 0.7329,0.47917 1.21878,0.47917 0.25298,0 0.49257,-0.0461 0.7128,-0.14434 0.22025,-0.0923 0.4152,-0.22991 0.57666,-0.40031 0.1622,-0.17039 0.29167,-0.36756 0.38914,-0.59748 0.0975,-0.22322 0.14881,-0.46652 0.14881,-0.70909 0,-0.48587 -0.16816,-0.91966 -0.50596,-1.29988 l -7.48749,-8.62144 7.29255,-4.84608 c 0.46652,-0.32143 0.69346,-0.814 0.69346,-1.47771 v 0.0134 z m -30.82352,3.6965 c 0.5573,-0.56474 1.20612,-1.01118 1.95167,-1.33336 0.74555,-0.32813 1.53649,-0.49257 2.38547,-0.49257 0.76489,0 1.47175,0.1317 2.12652,0.39361 0.64808,0.26266 1.27087,0.65031 1.86016,1.15553 0.34971,0.282 0.74555,0.42635 1.18603,0.42635 0.52531,0 0.95315,-0.17709 1.2969,-0.53201 0.34377,-0.35491 0.51192,-0.80135 0.51192,-1.33336 0,-0.532 -0.20759,-1.02457 -0.62873,-1.40478 -1.78947,-1.61537 -3.90856,-2.42342 -6.3528,-2.42342 -2.69053,0 -4.99118,0.97175 -6.89746,2.92194 -1.90629,1.94348 -2.85199,4.29472 -2.85199,7.05222 0,2.75749 0.95314,5.10203 2.85199,7.05222 1.90628,1.94349 4.20097,2.92193 6.89746,2.92193 2.43754,0 4.55738,-0.80731 6.3528,-2.42341 0.38245,-0.39361 0.57739,-0.84674 0.57739,-1.37205 0,-0.52531 -0.1689,-0.97844 -0.51192,-1.32666 -0.34375,-0.34823 -0.77754,-0.52531 -1.29615,-0.52531 -0.44049,0.0134 -0.82368,0.14434 -1.14734,0.39361 -0.58335,0.51191 -1.19273,0.89287 -1.84751,1.14883 -0.64808,0.25596 -1.35494,0.38096 -2.12653,0.38096 -0.84898,0 -1.63991,-0.16444 -2.38546,-0.49257 -0.74555,-0.32813 -1.39363,-0.77457 -1.95168,-1.33261 -0.5573,-0.55805 -0.99853,-1.22771 -1.31625,-1.98293 -0.31771,-0.76192 -0.47992,-1.57593 -0.47992,-2.44275 0,-0.86684 0.16221,-1.68085 0.47992,-2.44276 0.31772,-0.76192 0.7582,-1.41818 1.31625,-1.98293 v -0.007 z"
       fill="#1d63ed"
       stroke-width="0"
       id="path1-5" /></g></svg>
